<svg id="Layer_1" data-name="Layer 1" xmlns="http://www.w3.org/2000/svg" viewBox="0 0 770.17 240.29"><defs><style>.cls-1{fill:#1b1464;}.cls-2{fill:#d4000b;}.cls-2,.cls-3,.cls-4{stroke:#1d1d1b;stroke-linecap:round;stroke-miterlimit:10;}.cls-3{fill:#169f00;}.cls-4{fill:#110015;}.cls-5{font-size:24px;font-family:MyriadPro-Regular, Myriad Pro;}.cls-10,.cls-5{fill:#fff;}.cls-6{letter-spacing:-0.01em;}.cls-7{letter-spacing:0em;}.cls-8{letter-spacing:0.01em;}.cls-9{letter-spacing:0.01em;}</style></defs><title>cli</title><rect class="cls-1" x="205.67" y="102.04" width="554" height="134" rx="26.63" ry="26.63"/><path d="M804.88,282A24.15,24.15,0,0,1,829,306.13v80.75A24.15,24.15,0,0,1,804.88,411H304.13A24.15,24.15,0,0,1,280,386.88V306.13A24.15,24.15,0,0,1,304.13,282H804.88m0-5H304.13A29.13,29.13,0,0,0,275,306.13v80.75A29.13,29.13,0,0,0,304.13,416H804.88A29.12,29.12,0,0,0,834,386.88V306.13A29.13,29.13,0,0,0,804.88,277Z" transform="translate(-71.83 -177.46)"/><circle class="cls-2" cx="308.17" cy="125.54" r="11.5"/><circle class="cls-3" cx="272.17" cy="125.54" r="11.5"/><circle class="cls-4" cx="235.17" cy="125.54" r="11.5"/><text class="cls-5" transform="translate(272.17 186.08)"><tspan class="cls-6">T</tspan><tspan class="cls-7" x="11.76" y="0">his is a CLI</tspan><tspan class="cls-8" x="113.13" y="0">-</tspan><tspan x="120.84" y="0">Obje</tspan><tspan class="cls-9" x="168.88" y="0">c</tspan><tspan class="cls-7" x="179.95" y="0">t</tspan></text><path class="cls-10" d="M72,179.73C105.11,247.06,105.36,324,105.2,397.35c0,1.63,2.71,2.12,3,.4a1047.52,1047.52,0,0,1,23.93-118.88,1.5,1.5,0,0,0-2.89-.8A1046.21,1046.21,0,0,0,105.26,397l2.94.4c.13-58.21.09-117.74-16.25-174.13a274.57,274.57,0,0,0-17.37-45c-.85-1.73-3.44-.21-2.59,1.51Z" transform="translate(-71.83 -177.46)"/><path class="cls-10" d="M130.67,267.39a148.74,148.74,0,0,1,41,32.22,147.18,147.18,0,0,1,15.71,21.2c2.52,4.11,5.26,8.45,6.68,13.08,1.76,5.79-.3,16.2-8.67,13.9a1.51,1.51,0,0,0-.8,2.9c8.85,2.42,14.32-6.89,13.07-14.66-1.64-10.18-9.6-20.42-15.65-28.47a151.83,151.83,0,0,0-49.81-42.76c-1.7-.91-3.22,1.68-1.52,2.59Z" transform="translate(-71.83 -177.46)"/></svg>